<?xml version="1.0" encoding="UTF-8"?> <svg xmlns="http://www.w3.org/2000/svg" xmlns:xlink="http://www.w3.org/1999/xlink" xmlns:svgjs="http://svgjs.com/svgjs" version="1.1" width="512" height="512" x="0" y="0" viewBox="0 0 512 512" style="enable-background:new 0 0 512 512" xml:space="preserve"><g><g xmlns="http://www.w3.org/2000/svg"><path d="m120 344a24 24 0 1 0 24 24 24.027 24.027 0 0 0 -24-24zm0 32a8 8 0 1 1 8-8 8.009 8.009 0 0 1 -8 8z" fill="#ffffff" data-original="#000000" style=""></path><path d="m408 344a24 24 0 1 0 24 24 24.027 24.027 0 0 0 -24-24zm0 32a8 8 0 1 1 8-8 8.009 8.009 0 0 1 -8 8z" fill="#ffffff" data-original="#000000" style=""></path><path d="m502.73 235.67-72-112a8 8 0 0 0 -6.73-3.67h-80v-24a8 8 0 0 0 -8-8h-320a8 8 0 0 0 -8 8v272a8 8 0 0 0 8 8h48.58a55.914 55.914 0 0 0 16.28 32h-64.86a8 8 0 0 0 0 16h448a8 8 0 0 0 0-16h-16.86a55.914 55.914 0 0 0 16.28-32h32.58a8 8 0 0 0 8-8v-128a8.018 8.018 0 0 0 -1.27-4.33zm-67.67-75.67 46.29 72h-113.35v-72zm-411.06-56h304v160h-304zm40.58 256h-40.58v-80h304v80h-152.58a55.994 55.994 0 0 0 -110.84 0zm55.42 48a40 40 0 1 1 40-40 40.04 40.04 0 0 1 -40 40zm39.14 0a55.914 55.914 0 0 0 16.28-32h177.16a55.914 55.914 0 0 0 16.28 32zm248.86 0a40 40 0 1 1 40-40 40.04 40.04 0 0 1 -40 40zm80-112h-16a8 8 0 0 1 0-16h16zm0-32h-16a24 24 0 0 0 0 48h16v48h-24.58a55.994 55.994 0 0 0 -110.84 0h-8.58v-224h75.63l5.15 8h-64.78a8 8 0 0 0 -8 8v88a8 8 0 0 0 8 8h128z" fill="#ffffff" data-original="#000000" style=""></path><path d="m384 264h-24a8 8 0 0 0 0 16h24a8 8 0 0 0 0-16z" fill="#ffffff" data-original="#000000" style=""></path><path d="m216 312h64a8 8 0 0 0 0-16h-64a8 8 0 0 0 0 16z" fill="#ffffff" data-original="#000000" style=""></path><path d="m280 320h-24a8 8 0 0 0 0 16h24a8 8 0 0 0 0-16z" fill="#ffffff" data-original="#000000" style=""></path><path d="m496 408h-8a8 8 0 0 0 0 16h8a8 8 0 0 0 0-16z" fill="#ffffff" data-original="#000000" style=""></path><path d="m104 184a8 8 0 0 1 -8 8h-40v40a8 8 0 0 1 -16 0v-96a8 8 0 0 1 8-8h48a8 8 0 0 1 0 16h-40v32h40a8 8 0 0 1 8 8z" fill="#ffffff" data-original="#000000" style=""></path><path d="m200 192v32h40a8 8 0 0 1 0 16h-48a8 8 0 0 1 -8-8v-96a8 8 0 0 1 8-8h48a8 8 0 0 1 0 16h-40v32h40a8 8 0 0 1 0 16z" fill="#ffffff" data-original="#000000" style=""></path><path d="m264 240h48a8 8 0 0 0 0-16h-40v-32h40a8 8 0 0 0 0-16h-40v-32h40a8 8 0 0 0 0-16h-48a8 8 0 0 0 -8 8v96a8 8 0 0 0 8 8z" fill="#ffffff" data-original="#000000" style=""></path><path d="m176 184v-48a8 8 0 0 0 -8-8h-48a8 8 0 0 0 -8 8v96a8 8 0 0 0 16 0v-40h11.06l21.78 43.58a8.005 8.005 0 1 0 14.32-7.16l-18.22-36.42h11.06a8 8 0 0 0 8-8zm-16-8h-32v-32h32z" fill="#ffffff" data-original="#000000" style=""></path></g></g></svg> 